<?xml version="1.0" encoding="iso-8859-1"?>
<!-- Generator: Adobe Illustrator 19.0.0, SVG Export Plug-In . SVG Version: 6.00 Build 0)  -->
<svg version="1.1" id="Capa_1" xmlns="http://www.w3.org/2000/svg" xmlns:xlink="http://www.w3.org/1999/xlink" x="0px" y="0px"
	 viewBox="0 0 511.887 511.887" style="enable-background:new 0 0 511.887 511.887;" xml:space="preserve">
<g>
	<g transform="translate(1 1)">
		<g>
			<path style="fill:#E3E7F2;" d="M461.228,54.3c-0.512-0.512-1.024-1.024-1.536-1.451C404.474-0.722,316.487-0.076,262.06,54.3
				c-1.963,1.963-3.84,3.925-5.632,6.059l180.139,180.139L455.17,259.1c2.048-1.792,4.096-3.669,6.059-5.632
				C516.183,198.451,516.183,109.316,461.228,54.3z M428.802,174.193l-87.467-87.467c-1.974-1.918-3.39-4.337-4.096-6.997
				c-1.364-4.491-0.759-9.35,1.666-13.369c2.424-4.019,6.44-6.821,11.049-7.709c27.7-5.461,56.364,2.265,77.568,20.907
				c1.536,1.28,2.987,2.645,4.437,4.096c21.437,21.449,30.78,52.167,24.917,81.92c-1.159,6.043-5.562,10.951-11.444,12.757
				C439.55,180.137,433.152,178.545,428.802,174.193z"/>
			<path style="fill:#E3E7F2;" d="M461.228,54.3c-0.512-0.512-1.024-1.024-1.536-1.451c39.424,55.986,32.871,132.215-15.531,180.651
				c-1.963,1.963-4.011,3.84-6.059,5.632c-0.512,0.427-1.024,0.939-1.536,1.365L455.17,259.1c2.048-1.792,4.096-3.669,6.059-5.632
				C516.183,198.451,516.183,109.316,461.228,54.3z"/>
			<path style="fill:#E3E7F2;" d="M262.06,253.468c-12.003-12.014-21.744-26.091-28.757-41.557L19.714,425.585
				c-2.345,2.28-3.926,5.232-4.523,8.448l-7.339,36.523v0.085c-0.914,4.456,0.065,9.091,2.703,12.797s6.697,6.149,11.207,6.744
				l44.629,6.4c4.921,0.707,9.899-0.827,13.568-4.182c3.669-3.355,5.641-8.177,5.376-13.141l-0.939-17.067
				c-0.212-4.701,1.563-9.275,4.891-12.603c3.328-3.328,7.901-5.103,12.603-4.891l18.859,1.109c4.693,0.208,9.256-1.57,12.569-4.9
				c3.313-3.33,5.07-7.902,4.839-12.593l-1.024-18.859c-0.243-4.687,1.513-9.257,4.832-12.576c3.319-3.319,7.889-5.075,12.576-4.832
				l18.859,1.024c4.705,0.226,9.288-1.544,12.619-4.875c3.331-3.331,5.101-7.913,4.875-12.619l-1.109-18.859
				c-0.209-4.693,1.57-9.256,4.9-12.57c3.33-3.313,7.902-5.07,12.593-4.838l37.205,1.963l59.136-59.051
				c-8.248-3.743-16.108-8.287-23.467-13.568C273.693,264.126,267.64,259.044,262.06,253.468z"/>
		</g>
		<path style="fill:#FFFFFF;" d="M246.188,234.524L37.463,443.334L7.511,473.513l7.68-39.48c0.597-3.216,2.177-6.168,4.523-8.448
			L233.303,211.91C236.895,219.828,241.208,227.397,246.188,234.524z"/>
		<g>
			<path style="fill:#A4C2F7;" d="M461.228,54.3c-0.512-0.512-1.024-1.024-1.536-1.451c39.424,55.986,32.871,132.215-15.531,180.651
				c-1.963,1.963-4.011,3.84-6.059,5.632c-0.512,0.427-1.024,0.939-1.536,1.365L455.17,259.1c2.048-1.792,4.096-3.669,6.059-5.632
				C516.183,198.451,516.183,109.316,461.228,54.3z"/>
			<path style="fill:#A4C2F7;" d="M303.618,282.225l-59.136,59.051l-37.205-1.963c-4.692-0.232-9.264,1.525-12.593,4.838
				c-3.33,3.313-5.109,7.877-4.9,12.57l1.109,18.859c0.227,4.705-1.544,9.288-4.875,12.619c-3.331,3.331-7.913,5.101-12.619,4.875
				l-18.859-1.024c-4.687-0.243-9.257,1.513-12.576,4.832c-3.319,3.319-5.075,7.889-4.832,12.576l1.024,18.859
				c0.231,4.692-1.525,9.264-4.839,12.593c-3.313,3.33-7.877,5.109-12.569,4.9L101.89,444.7c-4.701-0.212-9.275,1.563-12.603,4.891
				c-3.328,3.328-5.103,7.901-4.891,12.603l0.939,17.067c0.266,4.964-1.707,9.786-5.376,13.141
				c-3.669,3.355-8.647,4.889-13.568,4.182l-44.629-6.4c-4.51-0.596-8.569-3.038-11.207-6.744s-3.617-8.341-2.703-12.797
				l41.472,5.973c4.921,0.708,9.9-0.827,13.568-4.182c3.669-3.355,5.641-8.177,5.376-13.141l-0.939-17.067
				c-0.212-4.701,1.563-9.275,4.891-12.603c3.328-3.328,7.901-5.103,12.603-4.891l18.859,1.109c4.693,0.209,9.256-1.57,12.569-4.9
				c3.313-3.33,5.07-7.902,4.839-12.593l-1.024-18.859c-0.243-4.687,1.513-9.257,4.832-12.576c3.319-3.319,7.889-5.075,12.576-4.832
				l18.859,1.024c4.705,0.226,9.288-1.544,12.619-4.875c3.331-3.331,5.101-7.913,4.875-12.619l-1.109-18.859
				c-0.209-4.693,1.57-9.256,4.9-12.569c3.33-3.313,7.902-5.07,12.593-4.839l37.205,1.963l52.736-52.651
				C287.51,273.937,295.37,278.482,303.618,282.225z"/>
		</g>
		<path style="fill:#F3D55B;" d="M455.17,259.1c-55.702,49.572-140.397,47.109-193.124-5.618s-55.19-137.422-5.618-193.124
			L455.17,259.1z"/>
		
			<linearGradient id="SVGID_1_" gradientUnits="userSpaceOnUse" x1="-49.2216" y1="651.2476" x2="-49.3807" y2="650.3455" gradientTransform="matrix(234.369 0 0 -234.3617 11895.4863 152706.0313)">
			<stop  offset="0" style="stop-color:#D4E1F4"/>
			<stop  offset="0.1717" style="stop-color:#D4E1F4"/>
			<stop  offset="0.2" style="stop-color:#D4E1F4"/>
			<stop  offset="0.2001" style="stop-color:#DAE4F4"/>
			<stop  offset="0.2007" style="stop-color:#EBEBF4"/>
			<stop  offset="0.2014" style="stop-color:#F6F1F4"/>
			<stop  offset="0.2023" style="stop-color:#FDF4F4"/>
			<stop  offset="0.205" style="stop-color:#FFF5F4"/>
			<stop  offset="0.2522" style="stop-color:#FFF5F4"/>
			<stop  offset="0.26" style="stop-color:#FFF5F4"/>
			<stop  offset="0.26" style="stop-color:#D4E1F4"/>
			<stop  offset="0.3974" style="stop-color:#D4E1F4"/>
			<stop  offset="0.42" style="stop-color:#D4E1F4"/>
			<stop  offset="0.4201" style="stop-color:#DAE4F4"/>
			<stop  offset="0.4207" style="stop-color:#EBEBF4"/>
			<stop  offset="0.4214" style="stop-color:#F6F1F4"/>
			<stop  offset="0.4223" style="stop-color:#FDF4F4"/>
			<stop  offset="0.425" style="stop-color:#FFF5F4"/>
			<stop  offset="0.4894" style="stop-color:#FFF5F4"/>
			<stop  offset="0.5" style="stop-color:#FFF5F4"/>
			<stop  offset="0.5" style="stop-color:#F9F2F4"/>
			<stop  offset="0.5001" style="stop-color:#E8EBF4"/>
			<stop  offset="0.5003" style="stop-color:#DDE5F4"/>
			<stop  offset="0.5005" style="stop-color:#D6E2F4"/>
			<stop  offset="0.501" style="stop-color:#D4E1F4"/>
			<stop  offset="0.7062" style="stop-color:#D4E1F4"/>
			<stop  offset="0.74" style="stop-color:#D4E1F4"/>
			<stop  offset="0.741" style="stop-color:#FFF5F4"/>
			<stop  offset="0.8346" style="stop-color:#FFF5F4"/>
			<stop  offset="0.85" style="stop-color:#FFF5F4"/>
			<stop  offset="0.851" style="stop-color:#D4E1F4"/>
		</linearGradient>
		<path style="fill:url(#SVGID_1_);" d="M436.567,240.497L256.428,60.358c-49.597,55.69-47.127,140.405,5.632,193.109
			c5.58,5.576,11.633,10.658,18.091,15.189c7.359,5.281,15.219,9.825,23.467,13.568c50.652,22.894,110.033,13.833,151.552-23.125
			L436.567,240.497z"/>
		<path style="fill:#A4C2F7;" d="M455.17,259.1c-41.519,36.959-100.9,46.02-151.552,23.125c-8.248-3.743-16.108-8.287-23.467-13.568
			l6.4-6.4c49.975,22.585,108.517,14.093,150.016-21.76L455.17,259.1z"/>
	</g>
	<path style="fill:#FFFFFF;" d="M460.906,53.977c0.512,0.512,1.024,1.024,1.451,1.536C406.37,16.089,330.142,22.642,281.706,71.044
		c-1.963,1.963-3.84,4.011-5.632,6.059c-0.427,0.512-0.939,1.024-1.365,1.536c-35.853,41.499-44.345,100.041-21.76,150.016l-6.4,6.4
		c-5.281-7.359-9.825-15.219-13.568-23.467c-22.894-50.652-13.833-110.033,23.125-151.552c1.792-2.048,3.669-4.096,5.632-6.059
		C316.755-0.978,405.889-0.978,460.906,53.977z"/>
	<g>
		<path style="fill:#FFFFFF;" d="M240.364,218.963l-78.442,78.442L39.677,419.651l-7.64,7.64c-2.25,2.34-5.928,5.72-6.322,6.548
			c-0.474,0.706-0.826,1.487-1.041,2.31l-0.972,4.789l-2.131,10.62l-4.262,21.24c-0.951,3.572,0.699,7.326,3.973,9.04
			c0.773,0.418,1.611,0.702,2.479,0.839l5.156,0.754l10.695,1.527l21.39,3.056l5.347,0.764l2.475,0.332
			c0.441,0.056,0.887,0.071,1.331,0.044c3.602-0.157,6.654-2.705,7.451-6.221c0.225-1.003,0.28-2.036,0.164-3.056l-0.296-5.398
			l-0.592-10.796c-0.586-11.27,6.396-21.554,17.087-25.167c2.585-0.894,5.304-1.341,8.039-1.323
			c2.681,0.019,3.841,0.179,5.836,0.261l10.788,0.603c2.316,0.477,4.716,0.337,6.961-0.404c1.638-0.681,3.011-1.875,3.913-3.403
			c0.461-0.743,0.782-1.565,0.945-2.425c0.096-0.427,0.156-0.862,0.177-1.299c-0.014-0.386,0.032-0.784-0.05-1.868l-0.603-10.788
			l-0.302-5.394c-0.197-2.454-0.096-4.923,0.3-7.354c2.068-11.094,11.237-19.474,22.472-20.538c1.301-0.112,2.609-0.136,3.914-0.073
			l2.697,0.151l5.394,0.302l10.591,0.572c2.216,0.055,4.358-0.801,5.926-2.368c1.568-1.567,2.425-3.708,2.371-5.924l-0.269-5.191
			l-0.603-10.788l-0.151-2.697c-0.063-1.303-0.04-2.608,0.071-3.907c0.236-2.724,0.925-5.389,2.04-7.885
			c3.369-7.623,10.287-13.088,18.482-14.601c2.429-0.397,4.897-0.5,7.351-0.309l10.798,0.577l21.116,1.128l56.401-56.401
			l12.068,12.069l-30.562,30.561L264.8,335.083l-7.64,7.64l-1.91,1.91l-0.955,0.955c-0.619,0.619-1.282,1.192-1.985,1.714
			c-2.923,2.157-6.457,3.326-10.089,3.338l-22.043-1.151l-10.782-0.577c-1.136-0.131-2.284-0.113-3.416,0.052
			c-0.858,0.164-1.684,0.462-2.449,0.885c-1.554,0.858-2.782,2.204-3.495,3.829c-0.364,0.796-0.585,1.649-0.652,2.522
			c-0.042,0.495-0.05,0.992-0.024,1.488l0.151,2.697l0.603,10.788l0.285,5.599c0.184,6.907-2.48,13.587-7.368,18.471
			c-4.888,4.884-11.569,7.544-18.476,7.355l-10.987-0.587l-5.394-0.302l-2.697-0.151c-0.494-0.026-0.989-0.017-1.481,0.026
			c-3.607,0.355-6.55,3.041-7.231,6.601c-0.123,2.938-0.037,5.881,0.255,8.806l0.603,10.788c0.447,5.289-0.751,10.587-3.43,15.169
			c-2.794,4.725-7.051,8.411-12.127,10.5c-2.536,1.017-5.214,1.634-7.939,1.829c-2.127,0.051-4.255-0.007-6.376-0.174l-10.788-0.603
			c-1.602-0.072-4.034-0.264-4.955-0.238c-0.874-0.018-1.744,0.125-2.566,0.422c-1.679,0.568-3.128,1.668-4.125,3.133
			c-0.989,1.472-1.477,3.224-1.39,4.996l0.591,10.782l0.295,5.391c0.186,2.573,0,5.16-0.553,7.68
			c-2.484,11.045-12.063,19.054-23.373,19.541c-1.355,0.067-2.713,0.018-4.06-0.145l-2.879-0.385l-5.349-0.764l-21.396-3.057
			l-10.698-1.528l-5.534-0.813c-2.694-0.44-5.297-1.321-7.705-2.609c-4.862-2.586-8.74-6.699-11.034-11.705
			C0,480.245-0.577,474.7,0.587,469.389l4.241-21.136l2.121-10.568l1.199-5.795c0.691-2.671,1.826-5.208,3.357-7.503
			c1.35-1.944,2.907-3.736,4.645-5.344l3.82-3.82l7.64-7.64l122.245-122.246l78.442-78.442L240.364,218.963z"/>
		<g>
			<path style="fill:#428DFF;" d="M6.948,437.685l-2.121,10.568l-4.241,21.136C-0.577,474.7,0,480.244,2.232,485.202
				c2.295,5.006,6.172,9.119,11.034,11.705c2.407,1.287,5.011,2.169,7.705,2.609l5.534,0.812l10.698,1.528l21.396,3.057l5.349,0.764
				l2.879,0.385c1.347,0.163,2.705,0.212,4.059,0.145c11.31-0.487,20.889-8.496,23.373-19.541c0.553-2.52,0.739-5.107,0.553-7.68
				l-0.295-5.391l-0.591-10.782c-0.087-1.771,0.401-3.523,1.39-4.995c0.997-1.466,2.446-2.566,4.125-3.133
				c0.822-0.297,1.692-0.44,2.566-0.422c0.92-0.027,3.353,0.166,4.955,0.238l10.789,0.603c2.121,0.167,4.249,0.225,6.376,0.174
				c2.725-0.195,5.403-0.812,7.939-1.829c5.076-2.09,9.333-5.776,12.127-10.501c2.679-4.582,3.877-9.88,3.43-15.169l-0.603-10.788
				c-0.293-2.926-0.378-5.869-0.255-8.806c0.681-3.56,3.624-6.246,7.231-6.601c0.493-0.043,0.988-0.051,1.481-0.026l2.697,0.151
				l5.394,0.302l10.987,0.587c6.907,0.189,13.588-2.471,18.476-7.355c4.888-4.884,7.552-11.563,7.368-18.471l-0.285-5.599
				l-0.603-10.788l-0.151-2.697c-0.026-0.496-0.018-0.993,0.025-1.488c0.068-0.872,0.288-1.726,0.652-2.522
				c0.713-1.626,1.941-2.971,3.495-3.829c0.765-0.422,1.591-0.721,2.449-0.885c1.132-0.165,2.28-0.182,3.416-0.051l10.782,0.577
				l22.043,1.151c3.632-0.012,7.166-1.181,10.089-3.337c0.703-0.522,1.366-1.095,1.985-1.714l0.955-0.955l1.91-1.91l7.641-7.641
				l15.281-15.281l26.478-26.478c51.921,21.026,111.245,11.178,153.587-25.496c0.82-0.371,1.575-0.873,2.236-1.485
				c0.348-0.424,0.653-0.882,0.908-1.368c1.644-1.506,3.364-2.904,4.95-4.491c58.231-58.333,58.19-152.814-0.092-211.096
				S315.386-8.934,257.053,49.297c-1.587,1.586-2.984,3.306-4.491,4.95c-0.485,0.256-0.944,0.56-1.368,0.908
				c-0.613,0.66-1.114,1.415-1.485,2.236c-36.673,42.342-46.521,101.666-25.496,153.587l-20.053,20.053
				c-2.156,2.156-2.998,5.298-2.208,8.243c0.789,2.945,3.089,5.245,6.034,6.034c2.945,0.789,6.087-0.053,8.243-2.209l15.83-15.83
				c13.534,24.498,33.712,44.675,58.209,58.209l-48.095,48.095l-21.116-1.128l-10.798-0.577c-2.454-0.192-4.922-0.088-7.351,0.308
				c-8.195,1.514-15.113,6.979-18.482,14.602c-1.115,2.496-1.804,5.161-2.04,7.884c-0.11,1.299-0.134,2.605-0.071,3.907l0.151,2.697
				l0.603,10.788l0.269,5.191c0.022,0.872-0.098,1.743-0.355,2.577c-1.086,3.456-4.32,5.783-7.942,5.716l-10.591-0.572l-5.395-0.302
				l-2.697-0.151c-1.305-0.063-2.612-0.038-3.914,0.073c-11.234,1.064-20.403,9.445-22.471,20.538
				c-0.396,2.43-0.496,4.899-0.3,7.354l0.302,5.394l0.603,10.788c0.082,1.084,0.036,1.482,0.05,1.868
				c-0.022,0.437-0.081,0.872-0.177,1.299c-0.163,0.86-0.484,1.682-0.945,2.425c-0.901,1.528-2.274,2.722-3.913,3.403
				c-2.245,0.741-4.645,0.88-6.961,0.404l-10.789-0.603c-1.995-0.082-3.155-0.242-5.836-0.261c-2.735-0.019-5.454,0.429-8.039,1.323
				c-10.691,3.613-17.673,13.897-17.087,25.167l0.592,10.796l0.296,5.398c0.116,1.021,0.061,2.054-0.164,3.056
				c-0.798,3.516-3.849,6.064-7.451,6.22c-0.444,0.027-0.89,0.013-1.331-0.044l-2.475-0.332l-5.347-0.764l-21.39-3.056
				l-10.695-1.527l-5.156-0.754c-0.868-0.137-1.706-0.421-2.479-0.839c-3.274-1.714-4.924-5.468-3.973-9.04l4.262-21.24l2.131-10.62
				l0.972-4.789c0.215-0.823,0.567-1.604,1.041-2.31c0.394-0.829,4.072-4.208,6.322-6.548l7.641-7.641l122.246-122.246l6.034-6.034
				c3.332-3.333,3.332-8.736,0-12.068c-3.333-3.332-8.736-3.332-12.068,0l-6.034,6.034L27.609,407.583l-7.64,7.64l-3.82,3.82
				c-1.737,1.608-3.294,3.4-4.644,5.344c-1.531,2.296-2.666,4.832-3.357,7.503L6.948,437.685z M456.174,61.364
				c51.495,51.621,51.569,135.158,0.166,186.87L269.303,61.198C321.013,9.788,404.556,9.862,456.174,61.364z M230.378,154.893
				c-0.043-29.268,9.703-57.71,27.687-80.801l185.38,185.38c-39.886,30.858-93.855,36.332-139.126,14.112
				S230.366,205.323,230.378,154.893z"/>
			<path style="fill:#428DFF;" d="M186.059,269.769c4.712-0.046,8.521-3.855,8.567-8.567l-0.179-1.629
				c-0.107-0.566-0.29-1.115-0.542-1.632c-0.169-0.516-0.414-1.004-0.728-1.447c-0.331-0.466-0.693-0.909-1.084-1.325
				c-1.62-1.575-3.775-2.48-6.034-2.534c-2.874-0.054-5.577,1.364-7.167,3.759c-1.59,2.395-1.846,5.437-0.68,8.064
				c0.417,1.036,1.032,1.979,1.812,2.778C181.646,268.808,183.801,269.712,186.059,269.769z"/>
			<path style="fill:#428DFF;" d="M336.282,93.743l87.512,87.512c6.584,6.566,16.253,8.964,25.142,6.235
				c8.889-2.729,15.547-10.139,17.312-19.269c6.408-32.561-3.825-66.176-27.292-89.642c-23.466-23.466-57.08-33.7-89.642-27.292
				c-9.129,1.765-16.54,8.423-19.269,17.312C327.318,77.49,329.716,87.159,336.282,93.743L336.282,93.743z M346.348,73.66
				c0.857-2.899,3.269-5.072,6.242-5.621c26.987-5.32,54.85,3.159,74.3,22.609s27.928,47.313,22.608,74.3
				c-0.549,2.973-2.722,5.385-5.621,6.242c-2.835,0.908-5.94,0.133-8.017-2l-87.512-87.513
				C346.215,79.6,345.44,76.495,346.348,73.66z"/>
			<path style="fill:#428DFF;" d="M228.124,278.056l5.858-5.858c3.332-3.332,3.332-8.735,0-12.067
				c-3.332-3.332-8.735-3.332-12.067,0l-5.858,5.858c-2.155,2.155-2.997,5.297-2.208,8.242s3.089,5.244,6.033,6.033
				C222.826,281.053,225.968,280.211,228.124,278.056z"/>
			<path style="fill:#428DFF;" d="M46.22,447.893c1.6,1.601,3.77,2.5,6.033,2.5c2.263,0,4.433-0.899,6.033-2.5l146.412-146.412
				c2.156-2.156,2.997-5.297,2.208-8.242c-0.789-2.944-3.089-5.244-6.033-6.033c-2.944-0.789-6.086,0.053-8.242,2.208L46.22,435.826
				c-1.601,1.6-2.5,3.77-2.5,6.033S44.619,446.293,46.22,447.893z"/>
		</g>
	</g>
</g>
<g>
</g>
<g>
</g>
<g>
</g>
<g>
</g>
<g>
</g>
<g>
</g>
<g>
</g>
<g>
</g>
<g>
</g>
<g>
</g>
<g>
</g>
<g>
</g>
<g>
</g>
<g>
</g>
<g>
</g>
</svg>
